<svg width="22" height="26" viewBox="0 0 22 26" fill="none" xmlns="http://www.w3.org/2000/svg">
<path d="M17.6667 18V18.4142L17.9596 18.7071L20.2525 21H1.08088L3.37377 18.7071L3.66667 18.4142V18V11.3333C3.66667 7.57541 5.62437 4.65517 8.89722 3.87973L9.66667 3.69742V2.90667V2C9.66667 1.44562 10.1123 1 10.6667 1C11.221 1 11.6667 1.44562 11.6667 2V2.90667V3.69678L12.4354 3.87955C15.6962 4.65486 17.6667 7.58963 17.6667 11.3333V18ZM11.9964 24.3333C11.691 24.7371 11.2072 25 10.6667 25C10.1196 25 9.63632 24.7377 9.33295 24.3333H11.9964Z" stroke="#4B4B4B" stroke-width="2"/>
</svg>
