<svg width="24" height="24" viewBox="0 0 24 24" fill="none" xmlns="http://www.w3.org/2000/svg">
<path d="M15.9257 15.2425L15.9855 15.3002H16.0686H17.0673L23.709 21.9552L21.9552 23.709L15.3002 17.0673V16.0686V15.9855L15.2425 15.9257L14.872 15.5415L14.7371 15.4016L14.5897 15.5283C13.0612 16.8422 11.0775 17.6329 8.91938 17.6329C4.10682 17.6329 0.205832 13.7319 0.205832 8.91938C0.205832 4.10682 4.10682 0.205832 8.91938 0.205832C13.7319 0.205832 17.6329 4.10682 17.6329 8.91938C17.6329 11.0775 16.8422 13.0612 15.5283 14.5897L15.4016 14.7371L15.5415 14.872L15.9257 15.2425ZM2.53859 8.91938C2.53859 12.4499 5.38889 15.3002 8.91938 15.3002C12.4499 15.3002 15.3002 12.4499 15.3002 8.91938C15.3002 5.38889 12.4499 2.53859 8.91938 2.53859C5.38889 2.53859 2.53859 5.38889 2.53859 8.91938Z" fill="#CDCDCD" stroke="#323232" stroke-width="0.4"/>
</svg>
