<svg width="24" height="24" viewBox="0 0 24 24" fill="none" xmlns="http://www.w3.org/2000/svg">
<path d="M15.9258 15.2425L15.9856 15.3002H16.0686H17.0673L23.7091 21.9553L21.9553 23.7091L15.3002 17.0673V16.0686V15.9856L15.2425 15.9258L14.872 15.5416L14.7371 15.4016L14.5897 15.5283C13.0612 16.8423 11.0775 17.633 8.9194 17.633C4.10683 17.633 0.205832 13.732 0.205832 8.9194C0.205832 4.10683 4.10683 0.205832 8.9194 0.205832C13.732 0.205832 17.633 4.10683 17.633 8.9194C17.633 11.0775 16.8423 13.0612 15.5283 14.5897L15.4016 14.7371L15.5416 14.872L15.9258 15.2425ZM2.5386 8.9194C2.5386 12.4499 5.38891 15.3002 8.9194 15.3002C12.4499 15.3002 15.3002 12.4499 15.3002 8.9194C15.3002 5.38891 12.4499 2.5386 8.9194 2.5386C5.38891 2.5386 2.5386 5.38891 2.5386 8.9194Z" fill="#4B4B4B" stroke="white" stroke-width="0.4"/>
</svg>
